<svg width="132" height="36" viewBox="0 0 132 36" fill="none" xmlns="http://www.w3.org/2000/svg">
<rect x="0.5" y="0.5" width="35" height="35" stroke="black"/>
<path d="M3.57194 3.57355L3.57355 3.57194C4.79714 2.34556 6.37314 1.68775 8.68919 1.34759C11.0392 1.00245 14.0222 1 17.9967 1C21.9712 1 24.9545 1.00243 27.3055 1.34683C29.6222 1.68621 31.2004 2.34254 32.4273 3.56622C33.6543 4.79331 34.3122 6.37149 34.6524 8.68833C34.9976 11.0391 35 14.0222 35 17.9967C35 21.9712 34.9976 24.9543 34.6524 27.3051C34.3122 29.622 33.6543 31.2002 32.4273 32.4273C31.2003 33.6542 29.6207 34.3122 27.3027 34.6524C24.9511 34.9976 21.9679 35 17.9967 35C14.0255 35 11.0424 34.9976 8.69159 34.6524C6.37446 34.3122 4.79699 33.6543 3.57355 32.4281L3.57275 32.4273C2.34581 31.2003 1.68782 29.6207 1.3476 27.3027C1.00244 24.9511 1 21.9679 1 17.9967C1 14.0255 1.00244 11.0424 1.3476 8.69159C1.68781 6.37446 2.34571 4.79699 3.57194 3.57355Z" stroke="white" stroke-width="2"/>
<path d="M15.9053 28V19.502H13V16.125H15.9053V13.4643C15.9053 10.5734 17.7083 9 20.3409 9C21.6023 9 22.6856 9.09277 23 9.13359V12.1543H21.1742C19.7424 12.1543 19.4659 12.8223 19.4659 13.7982V16.125H22.697L22.2538 19.502H19.4659V28" fill="white"/>
<rect x="48.5" y="0.5" width="35" height="35" stroke="black"/>
<path d="M51.5719 3.57355L51.5736 3.57194C52.7971 2.34556 54.3731 1.68775 56.6892 1.34759C59.0392 1.00245 62.0222 1 65.9967 1C69.9712 1 72.9545 1.00243 75.3055 1.34683C77.6222 1.68621 79.2004 2.34254 80.4273 3.56622C81.6543 4.79331 82.3122 6.37149 82.6524 8.68833C82.9976 11.0391 83 14.0222 83 17.9967C83 21.9712 82.9976 24.9543 82.6524 27.3051C82.3122 29.622 81.6543 31.2002 80.4273 32.4273C79.2003 33.6542 77.6207 34.3122 75.3027 34.6524C72.9511 34.9976 69.9679 35 65.9967 35C62.0255 35 59.0424 34.9976 56.6916 34.6524C54.3745 34.3122 52.797 33.6543 51.5736 32.4281L51.5727 32.4273C50.3458 31.2003 49.6878 29.6207 49.3476 27.3027C49.0024 24.9511 49 21.9679 49 17.9967C49 14.0255 49.0024 11.0424 49.3476 8.69159C49.6878 6.37446 50.3457 4.79699 51.5719 3.57355Z" stroke="white" stroke-width="2"/>
<path d="M73.1498 13.7383C73.1612 13.9023 73.1612 14.0664 73.1612 14.2305C73.1612 19.2344 69.4493 25 62.665 25C60.5749 25 58.6333 24.3789 57 23.3008C57.297 23.3359 57.5825 23.3477 57.8909 23.3477C59.6155 23.3477 61.2031 22.75 62.4708 21.7305C60.849 21.6953 59.4898 20.6055 59.0216 19.1055C59.25 19.1406 59.4784 19.164 59.7183 19.164C60.0495 19.164 60.3807 19.1172 60.6891 19.0352C58.9987 18.6836 57.7309 17.1601 57.7309 15.3203V15.2734C58.222 15.5547 58.7932 15.7305 59.3984 15.7539C58.4048 15.0742 57.7538 13.914 57.7538 12.6015C57.7538 11.8984 57.9365 11.2539 58.2563 10.6914C60.0723 12.9883 62.802 14.4882 65.8629 14.6523C65.8058 14.3711 65.7716 14.0781 65.7716 13.7852C65.7716 11.6992 67.4162 10 69.4607 10C70.5228 10 71.4822 10.457 72.1561 11.1953C72.9898 11.0313 73.7893 10.7148 74.4975 10.2813C74.2233 11.1602 73.6409 11.8985 72.8756 12.3672C73.618 12.2852 74.3376 12.0742 75 11.7813C74.4975 12.5312 73.8693 13.1992 73.1498 13.7383V13.7383Z" fill="white"/>
<rect x="96.5" y="0.5" width="35" height="35" stroke="black"/>
<path d="M99.5719 3.57355L99.5736 3.57194C100.797 2.34556 102.373 1.68775 104.689 1.34759C107.039 1.00245 110.022 1 113.997 1C117.971 1 120.954 1.00243 123.305 1.34683C125.622 1.68621 127.2 2.34254 128.427 3.56622C129.654 4.79331 130.312 6.37149 130.652 8.68833C130.998 11.0391 131 14.0222 131 17.9967C131 21.9712 130.998 24.9543 130.652 27.3051C130.312 29.622 129.654 31.2002 128.427 32.4273C127.2 33.6542 125.621 34.3122 123.303 34.6524C120.951 34.9976 117.968 35 113.997 35C110.026 35 107.042 34.9976 104.692 34.6524C102.374 34.3122 100.797 33.6543 99.5736 32.4281L99.5727 32.4273C98.3458 31.2003 97.6878 29.6207 97.3476 27.3027C97.0024 24.9511 97 21.9679 97 17.9967C97 14.0255 97.0024 11.0424 97.3476 8.69159C97.6878 6.37446 98.3457 4.79699 99.5719 3.57355Z" stroke="white" stroke-width="2"/>
<path d="M122.943 10.5476L119.925 24.9738C119.697 25.992 119.103 26.2454 118.26 25.7657L113.661 22.3311L111.442 24.4941C111.196 24.743 110.991 24.9512 110.518 24.9512L110.848 20.2043L119.371 12.3984C119.742 12.0636 119.291 11.878 118.795 12.2129L108.259 18.9373L103.723 17.4983C102.736 17.186 102.718 16.4982 103.928 16.0185L121.671 9.09053C122.492 8.77829 123.211 9.27606 122.943 10.5476V10.5476Z" fill="white"/>
</svg>
